<svg width="219" height="205" viewBox="0 0 219 205" fill="none" xmlns="http://www.w3.org/2000/svg">
<g clip-path="url(#clip0_173_2441)">
<mask id="mask0_173_2441" style="mask-type:luminance" maskUnits="userSpaceOnUse" x="31" y="37" width="80" height="80">
<path d="M31.8855 74.5473C32.1136 72.9732 32.295 71.3919 32.577 69.8285C35.327 54.5719 47.4475 42.0777 62.6017 38.8577C81.9428 34.7491 100.837 45.0877 107.804 63.5895C113.162 77.8248 109.295 94.6124 98.2844 105.123C91.6942 111.414 83.8971 115.203 74.83 115.954C60.8577 117.111 49.2921 112.204 40.3939 101.349C35.4006 95.255 32.6902 88.1759 32.0382 80.3197C32.0029 80.0833 31.9525 79.8495 31.8873 79.6197L31.8855 74.5473ZM43.5354 76.9758C43.5839 92.069 55.6631 104.395 70.9054 104.495C85.7579 104.594 98.3867 92.5967 98.4963 77.2217C98.6095 62.5933 86.9344 49.7185 71.1533 49.6126C56.2415 49.5121 43.751 61.3656 43.5354 76.9758Z" fill="white"/>
</mask>
<g mask="url(#mask0_173_2441)">
<path d="M98.0275 104.594L98.6076 103.795V104.594H98.0275Z" fill="#1358AA"/>
<path d="M96.8923 104.594L98.6077 102.23V103.795L98.0275 104.594H96.8923Z" fill="#1358AB"/>
<path d="M95.7572 104.594L98.6077 100.665V102.23L96.8924 104.594H95.7572Z" fill="#1358AC"/>
<path d="M94.6238 104.594L98.6077 99.0996V100.665L95.7572 104.594H94.6238Z" fill="#1259AD"/>
<path d="M93.4886 104.594L98.6077 97.5327V99.0997L94.6238 104.594H93.4886Z" fill="#1259AE"/>
<path d="M92.3534 104.594L98.6076 95.9675V97.5327L93.4886 104.594H92.3534Z" fill="#125AAF"/>
<path d="M91.2183 104.594L98.6077 94.4023V95.9675L92.3534 104.594H91.2183Z" fill="#125AB0"/>
<path d="M90.0831 104.594L98.6077 92.8373V94.4024L91.2183 104.594H90.0831Z" fill="#115AB1"/>
<path d="M88.9479 104.594L98.6077 91.2721V92.8372L90.0831 104.594H88.9479Z" fill="#115BB2"/>
<path d="M87.8127 104.594L98.6077 89.7069V91.2721L88.9479 104.594H87.8127Z" fill="#115BB3"/>
<path d="M86.6793 104.594L98.6077 88.14V89.707L87.8127 104.594H86.6793Z" fill="#115BB5"/>
<path d="M85.5442 104.594L98.6077 86.5748V88.14L86.6794 104.594H85.5442Z" fill="#105CB6"/>
<path d="M84.4089 104.594L98.6076 85.0098V86.5749L85.5441 104.594H84.4089Z" fill="#105CB7"/>
<path d="M83.2738 104.594L98.6077 83.4446V85.0097L84.409 104.594H83.2738Z" fill="#105CB8"/>
<path d="M82.1387 104.594L98.6077 81.8794V83.4445L83.2739 104.594H82.1387Z" fill="#0F5DB9"/>
<path d="M81.0034 104.594L98.6076 80.3125V81.8794L82.1386 104.594H81.0034Z" fill="#0F5DBA"/>
<path d="M79.8701 104.594L98.6077 78.7473V80.3125L81.0035 104.594H79.8701Z" fill="#0F5EBB"/>
<path d="M78.7349 104.594L98.6076 77.1821V78.7473L79.87 104.594H78.7349Z" fill="#0F5EBC"/>
<path d="M77.5997 104.594L98.6077 75.6171V77.1822L78.7349 104.594H77.5997Z" fill="#0E5EBD"/>
<path d="M76.4646 104.594L98.6077 74.0519V75.617L77.5998 104.594H76.4646Z" fill="#0E5FBE"/>
<path d="M75.3293 104.594L98.6077 72.4867V74.0518L76.4645 104.594H75.3293Z" fill="#0E5FBF"/>
<path d="M74.1942 104.594L98.6077 70.9198V72.4867L75.3294 104.594H74.1942Z" fill="#0E5FC0"/>
<path d="M73.059 104.594L98.6076 69.3546V70.9198L74.1941 104.594H73.059Z" fill="#0D60C1"/>
<path d="M71.9257 104.594L98.6077 67.7896V69.3547L73.059 104.594H71.9257Z" fill="#0D60C2"/>
<path d="M70.7904 104.594L98.6076 66.2244V67.7895L71.9256 104.594H70.7904Z" fill="#0D60C3"/>
<path d="M69.6553 104.594L98.6077 64.6592V66.2243L70.7905 104.594H69.6553Z" fill="#0D61C4"/>
<path d="M68.5201 104.594L98.6077 63.0923V64.6592L69.6553 104.594H68.5201Z" fill="#0C61C5"/>
<path d="M67.3849 104.594L98.6076 61.5271V63.0922L68.5201 104.594H67.3849Z" fill="#0C62C6"/>
<path d="M66.2498 104.594L98.6077 59.962V61.5272L67.3849 104.594H66.2498Z" fill="#0C62C7"/>
<path d="M65.1146 104.594L98.6077 58.3969V59.962L66.2498 104.594H65.1146Z" fill="#0C62C8"/>
<path d="M63.9812 104.594L98.182 57.4169L98.6077 57.7256V58.3969L65.1146 104.594H63.9812Z" fill="#0B63C9"/>
<path d="M62.8461 104.594L97.4384 56.8784L98.182 57.4169L63.9812 104.594H62.8461Z" fill="#0B63CA"/>
<path d="M61.7108 104.594L96.6929 56.3398L97.4384 56.8783L62.846 104.594H61.7108Z" fill="#0B63CB"/>
<path d="M60.5757 104.594L95.9494 55.8014L96.693 56.3399L61.7109 104.594H60.5757Z" fill="#0B64CC"/>
<path d="M59.4404 104.594L95.2057 55.2629L95.9493 55.8014L60.5756 104.594H59.4404Z" fill="#0A64CD"/>
<path d="M58.3053 104.594L94.4603 54.7227L95.2057 55.2629L59.4405 104.594H58.3053Z" fill="#0A65CE"/>
<path d="M57.1702 104.594L93.7168 54.1842L94.4604 54.7227L58.3053 104.594H57.1702Z" fill="#0A65CF"/>
<path d="M56.0367 104.594L92.9731 53.6458L93.7167 54.1842L57.1701 104.594H56.0367Z" fill="#0A65D0"/>
<path d="M55.3273 104.594L55.0471 104.393L92.2278 53.1073L92.9732 53.6458L56.0368 104.594H55.3273Z" fill="#0966D1"/>
<path d="M91.482 52.5655L54.3032 103.852L55.048 104.391L92.2267 53.1046L91.482 52.5655Z" fill="#0966D2"/>
<path d="M90.7387 52.0257L53.5599 103.312L54.3047 103.851L91.4834 52.5648L90.7387 52.0257Z" fill="#0966D3"/>
<path d="M89.9936 51.4859L52.8148 102.772L53.5596 103.311L90.7383 52.025L89.9936 51.4859Z" fill="#0967D5"/>
<path d="M89.2492 50.9494L52.0704 102.236L52.8152 102.775L89.9939 51.4885L89.2492 50.9494Z" fill="#0867D6"/>
<path d="M88.5059 50.4097L51.3271 101.696L52.0719 102.235L89.2507 50.9489L88.5059 50.4097Z" fill="#0867D7"/>
<path d="M87.7612 49.8689L50.5824 101.155L51.3272 101.694L88.5059 50.408L87.7612 49.8689Z" fill="#0868D8"/>
<path d="M50.5817 101.16L49.8381 100.62L86.8895 49.5121H87.2631L87.7624 49.8747L50.5817 101.16Z" fill="#0868D9"/>
<path d="M49.8382 100.62L49.0928 100.081L85.7543 49.5121H86.8895L49.8382 100.62Z" fill="#0769DA"/>
<path d="M49.0927 100.081L48.3491 99.5429L84.6191 49.5121H85.7543L49.0927 100.081Z" fill="#0769DB"/>
<path d="M48.3492 99.5429L47.6056 99.0044L83.4858 49.5121H84.6192L48.3492 99.5429Z" fill="#0769DC"/>
<path d="M47.6055 99.0044L46.8601 98.466L82.3506 49.5121H83.4857L47.6055 99.0044Z" fill="#066ADD"/>
<path d="M46.8602 98.466L46.1166 97.9257L81.2155 49.5121H82.3506L46.8602 98.466Z" fill="#066ADE"/>
<path d="M46.1165 97.9257L45.3711 97.3872L80.0802 49.5121H81.2154L46.1165 97.9257Z" fill="#066ADF"/>
<path d="M45.3711 97.3872L44.6274 96.8488L78.945 49.5121H80.0802L45.3711 97.3872Z" fill="#066BE0"/>
<path d="M44.6275 96.8488L43.8839 96.3103L77.8099 49.5121H78.9451L44.6275 96.8488Z" fill="#056BE1"/>
<path d="M43.8839 96.3103L43.5354 96.0572V95.2244L76.6747 49.5121H77.8098L43.8839 96.3103Z" fill="#056CE2"/>
<path d="M43.5354 93.6592L75.5395 49.5121H76.6747L43.5354 95.2244V93.6592Z" fill="#056CE3"/>
<path d="M43.5354 92.0941L74.4061 49.5121H75.5395L43.5354 93.6592V92.0941Z" fill="#056CE4"/>
<path d="M43.5354 90.529L73.2709 49.5121H74.4061L43.5354 92.0941V90.529Z" fill="#046DE5"/>
<path d="M43.5354 88.962L72.1357 49.5121H73.2709L43.5354 90.529V88.962Z" fill="#046DE6"/>
<path d="M43.5354 87.3969L71.0006 49.5121H72.1357L43.5354 88.962V87.3969Z" fill="#046DE7"/>
<path d="M43.5354 85.8317L69.8654 49.5121H71.0006L43.5354 87.3969V85.8317Z" fill="#046EE8"/>
<path d="M43.5354 84.2666L68.7302 49.5121H69.8654L43.5354 85.8317V84.2666Z" fill="#036EE9"/>
<path d="M43.5354 82.7014L67.5968 49.5121H68.7302L43.5354 84.2666V82.7014Z" fill="#036FEA"/>
<path d="M43.5354 81.1363L66.4617 49.5121H67.5968L43.5354 82.7014V81.1363Z" fill="#036FEB"/>
<path d="M43.5354 79.5693L65.3265 49.5121H66.4617L43.5354 81.1363V79.5693Z" fill="#036FED"/>
<path d="M43.5354 78.0042L64.1913 49.5121H65.3265L43.5354 79.5693V78.0042Z" fill="#0270EE"/>
<path d="M43.5354 76.4391L63.0561 49.5121H64.1913L43.5354 78.0042V76.4391Z" fill="#0270EF"/>
<path d="M43.5354 74.8739L61.921 49.5121H63.0561L43.5354 76.4391V74.8739Z" fill="#0270F0"/>
<path d="M43.5354 73.3088L60.7858 49.5121H61.921L43.5354 74.8739V73.3088Z" fill="#0271F1"/>
<path d="M43.5354 71.7418L59.6524 49.5121H60.7858L43.5354 73.3088V71.7418Z" fill="#0171F2"/>
<path d="M43.5354 70.1767L58.5172 49.5121H59.6524L43.5354 71.7418V70.1767Z" fill="#0172F3"/>
<path d="M43.5354 68.6115L57.382 49.5121H58.5172L43.5354 70.1767V68.6115Z" fill="#0172F4"/>
<path d="M43.5354 67.0464L56.2469 49.5121H57.382L43.5354 68.6115V67.0464Z" fill="#0172F5"/>
<path d="M43.5354 65.4812L55.1117 49.5121H56.2469L43.5354 67.0464V65.4812Z" fill="#0073F6"/>
<path d="M43.5354 63.9161L53.9765 49.5121H55.1117L43.5354 65.4812V63.9161Z" fill="#0073F7"/>
<path d="M53.9765 49.5121L43.5354 63.9161V49.5121H53.9765Z" fill="#0073F7"/>
<path d="M109.381 117.111L113.162 111.895V113.462L110.516 117.111H109.381Z" fill="#185198"/>
<path d="M108.246 117.111L113.162 110.33V111.895L109.381 117.111H108.246Z" fill="#175299"/>
<path d="M107.113 117.111L113.162 108.765V110.33L108.246 117.111H107.113Z" fill="#17529A"/>
<path d="M105.977 117.111L113.162 107.2V108.765L107.112 117.111H105.977Z" fill="#17529B"/>
<path d="M104.842 117.111L113.162 105.635V107.2L105.977 117.111H104.842Z" fill="#17539C"/>
<path d="M103.707 117.111L113.162 104.068V105.635L104.842 117.111H103.707Z" fill="#16539D"/>
<path d="M102.572 117.111L113.162 102.503V104.068L103.707 117.111H102.572Z" fill="#16539E"/>
<path d="M101.437 117.111L113.162 100.938V102.503L102.572 117.111H101.437Z" fill="#16549F"/>
<path d="M100.303 117.111L113.162 99.3724V100.938L101.437 117.111H100.303Z" fill="#1654A0"/>
<path d="M99.1681 117.111L113.162 97.8073V99.3724L100.303 117.111H99.1681Z" fill="#1554A1"/>
<path d="M98.033 117.111L113.162 96.2422V97.8073L99.1681 117.111H98.033Z" fill="#1555A2"/>
<path d="M96.8977 117.111L113.162 94.677V96.2422L98.0329 117.111H96.8977Z" fill="#1555A3"/>
<path d="M95.7626 117.111L113.162 93.1101V94.677L96.8977 117.111H95.7626Z" fill="#1556A4"/>
<path d="M94.6273 117.111L113.162 91.5449V93.1101L95.7625 117.111H94.6273Z" fill="#1456A5"/>
<path d="M93.4922 117.111L113.162 89.9797V91.5449L94.6274 117.111H93.4922Z" fill="#1456A6"/>
<path d="M92.3588 117.111L113.162 88.4147V89.9798L93.4921 117.111H92.3588Z" fill="#1457A7"/>
<path d="M91.2236 117.111L113.162 86.8495V88.4146L92.3588 117.111H91.2236Z" fill="#1457A8"/>
<path d="M90.0885 117.111L113.162 85.2826V86.8495L91.2237 117.111H90.0885Z" fill="#1357A9"/>
<path d="M88.9532 117.111L113.162 83.7174V85.2826L90.0884 117.111H88.9532Z" fill="#1358AA"/>
<path d="M87.8181 117.111L113.162 82.1522V83.7174L88.9533 117.111H87.8181Z" fill="#1358AB"/>
<path d="M86.683 117.111L113.162 80.5872V82.1523L87.8182 117.111H86.683Z" fill="#1358AC"/>
<path d="M85.5496 117.111L113.162 79.022V80.5871L86.6829 117.111H85.5496Z" fill="#1259AD"/>
<path d="M84.4144 117.111L113.162 77.4568V79.0219L85.5496 117.111H84.4144Z" fill="#1259AE"/>
<path d="M83.2792 117.111L113.162 75.8899V77.4568L84.4144 117.111H83.2792Z" fill="#125AAF"/>
<path d="M82.144 117.111L113.162 74.3247V75.8899L83.2792 117.111H82.144Z" fill="#125AB0"/>
<path d="M81.0088 117.111L113.162 72.7595V74.3247L82.144 117.111H81.0088Z" fill="#115AB1"/>
<path d="M79.8737 117.111L113.162 71.1945V72.7596L81.0088 117.111H79.8737Z" fill="#115BB2"/>
<path d="M78.7385 117.111L113.162 69.6293V71.1944L79.8737 117.111H78.7385Z" fill="#115BB3"/>
<path d="M77.6051 117.111L113.162 68.0641V69.6292L78.7385 117.111H77.6051Z" fill="#115BB5"/>
<path d="M76.47 117.111L113.162 66.4972V68.0641L77.6051 117.111H76.47Z" fill="#105CB6"/>
<path d="M75.3347 117.111L113.162 64.932V66.4972L76.4699 117.111H75.3347Z" fill="#105CB7"/>
<path d="M74.1996 117.111L113.162 63.3669V64.9321L75.3348 117.111H74.1996Z" fill="#105CB8"/>
<path d="M73.0645 117.111L113.162 61.8018V63.3669L74.1996 117.111H73.0645Z" fill="#0F5DB9"/>
<path d="M71.9292 117.111L113.162 60.2366V61.8017L73.0644 117.111H71.9292Z" fill="#0F5DBA"/>
<path d="M70.7941 117.111L113.162 58.6715V60.2367L71.9292 117.111H70.7941Z" fill="#0F5EBB"/>
<path d="M69.6589 117.111L113.162 57.1045V58.6714L70.7941 117.111H69.6589Z" fill="#0F5EBC"/>
<path d="M68.5255 117.111L113.162 55.5394V57.1046L69.6589 117.111H68.5255Z" fill="#0E5EBD"/>
<path d="M67.3903 117.111L113.162 53.9742V55.5394L68.5254 117.111H67.3903Z" fill="#0E5FBE"/>
<path d="M66.2551 117.111L112.612 53.1683L113.162 53.5668V53.9742L67.3903 117.111H66.2551Z" fill="#0E5FBF"/>
<path d="M65.12 117.111L111.869 52.6299L112.612 53.1684L66.2552 117.111H65.12Z" fill="#0E5FC0"/>
<path d="M63.9847 117.111L111.123 52.0896L111.869 52.6299L65.1199 117.111H63.9847Z" fill="#0D60C1"/>
<path d="M62.8496 117.111L110.38 51.5511L111.123 52.0896L63.9848 117.111H62.8496Z" fill="#0D60C2"/>
<path d="M61.7162 117.111L109.634 51.0127L110.38 51.5512L62.8496 117.111H61.7162Z" fill="#0D60C3"/>
<path d="M60.5811 117.111L108.891 50.4742L109.634 51.0127L61.7162 117.111H60.5811Z" fill="#0D61C4"/>
<path d="M59.4459 117.111L108.147 49.9357L108.891 50.4741L60.5811 117.111H59.4459Z" fill="#0C61C5"/>
<path d="M58.3107 117.111L107.402 49.3955L108.147 49.9358L59.4458 117.111H58.3107Z" fill="#0C62C6"/>
<path d="M57.1755 117.111L106.658 48.8571L107.402 49.3955L58.3107 117.111H57.1755Z" fill="#0C62C7"/>
<path d="M56.0403 117.111L105.913 48.3185L106.658 48.8569L57.1755 117.111H56.0403Z" fill="#0C62C8"/>
<path d="M55.4566 117.111L55.0956 116.849L105.169 47.78L105.913 48.3185L56.0404 117.111H55.4566Z" fill="#0B63C9"/>
<path d="M104.425 47.2377L54.3534 116.308L55.0982 116.848L105.169 47.7769L104.425 47.2377Z" fill="#0B63CA"/>
<path d="M103.677 46.6984L53.6058 115.769L54.3506 116.308L104.422 47.2376L103.677 46.6984Z" fill="#0B63CB"/>
<path d="M102.934 46.1586L52.8624 115.229L53.6072 115.768L103.678 46.6978L102.934 46.1586Z" fill="#0B64CC"/>
<path d="M102.19 45.6207L52.1191 114.691L52.8639 115.231L102.935 46.1598L102.19 45.6207Z" fill="#0A64CD"/>
<path d="M101.446 45.0824L51.3749 114.153L52.1196 114.692L102.191 45.6215L101.446 45.0824Z" fill="#0A65CE"/>
<path d="M100.703 44.5444L50.6315 113.615L51.3762 114.154L101.447 45.0835L100.703 44.5444Z" fill="#0A65CF"/>
<path d="M99.9569 44.005L49.8857 113.076L50.6305 113.615L100.702 44.5441L99.9569 44.005Z" fill="#0A65D0"/>
<path d="M99.2118 43.4653L49.1406 112.536L49.8854 113.075L99.9565 44.0044L99.2118 43.4653Z" fill="#0966D1"/>
<path d="M98.4685 42.9273L48.3973 111.998L49.1421 112.537L99.2132 43.4664L98.4685 42.9273Z" fill="#0966D2"/>
<path d="M97.7241 42.389L47.653 111.46L48.3977 111.999L98.4689 42.9281L97.7241 42.389Z" fill="#0966D3"/>
<path d="M96.9808 41.8492L46.9097 110.92L47.6544 111.459L97.7256 42.3883L96.9808 41.8492Z" fill="#0967D5"/>
<path d="M96.2361 41.3101L46.1649 110.381L46.9097 110.92L96.9808 41.8493L96.2361 41.3101Z" fill="#0867D6"/>
<path d="M95.4917 40.7718L45.4205 109.843L46.1653 110.382L96.2364 41.3109L95.4917 40.7718Z" fill="#0867D7"/>
<path d="M94.7484 40.2321L44.6772 109.303L45.422 109.842L95.4932 40.7713L94.7484 40.2321Z" fill="#0868D8"/>
<path d="M94.0023 39.6956L43.9312 108.766L44.6759 109.305L94.7471 40.2348L94.0023 39.6956Z" fill="#0868D9"/>
<path d="M93.2589 39.1558L43.1877 108.227L43.9325 108.766L94.0036 39.695L93.2589 39.1558Z" fill="#0769DA"/>
<path d="M92.5141 38.6149L42.443 107.686L43.1877 108.225L93.2589 39.1541L92.5141 38.6149Z" fill="#0769DB"/>
<path d="M91.7699 38.0784L41.6987 107.149L42.4435 107.688L92.5146 38.6176L91.7699 38.0784Z" fill="#0769DC"/>
<path d="M91.0266 37.5387L40.9554 106.609L41.7002 107.149L91.7713 38.0778L91.0266 37.5387Z" fill="#066ADD"/>
<path d="M90.2832 37.0007L40.212 106.071L40.9568 106.611L91.0279 37.5398L90.2832 37.0007Z" fill="#066ADE"/>
<path d="M89.5371 36.4624L39.4659 105.533L40.2107 106.072L90.2818 37.0015L89.5371 36.4624Z" fill="#066ADF"/>
<path d="M88.7938 35.9227L38.7227 104.993L39.4674 105.533L89.5386 36.4618L88.7938 35.9227Z" fill="#066BE0"/>
<path d="M88.0479 35.3851L37.9768 104.456L38.7216 104.995L88.7927 35.9242L88.0479 35.3851Z" fill="#056BE1"/>
<path d="M87.3047 34.8453L37.2335 103.916L37.9783 104.455L88.0494 35.3844L87.3047 34.8453Z" fill="#056CE2"/>
<path d="M37.2326 103.919L36.489 103.379L86.2428 34.7491H87.1696L87.3061 34.8479L37.2326 103.919Z" fill="#056CE3"/>
<path d="M36.4891 103.379L35.7437 102.84L85.1095 34.7491H86.2429L36.4891 103.379Z" fill="#056CE4"/>
<path d="M35.7436 102.84L35 102.302L83.9743 34.7491H85.1094L35.7436 102.84Z" fill="#046DE5"/>
<path d="M35.0001 102.302L34.2565 101.763L82.8392 34.7491H83.9743L35.0001 102.302Z" fill="#046DE6"/>
<path d="M34.2564 101.763L33.511 101.225L81.7039 34.7491H82.8391L34.2564 101.763Z" fill="#046DE7"/>
<path d="M33.5111 101.225L32.7675 100.685L80.5688 34.7491H81.704L33.5111 101.225Z" fill="#046EE8"/>
<path d="M32.7674 100.685L32.022 100.146L79.4336 34.7491H80.5688L32.7674 100.685Z" fill="#036EE9"/>
<path d="M32.022 100.146L31.8855 100.046V98.7711L78.3002 34.7491H79.4336L32.022 100.146Z" fill="#036FEA"/>
<path d="M31.8855 97.206L77.165 34.7491H78.3002L31.8855 98.7711V97.206Z" fill="#036FEB"/>
<path d="M31.8855 95.6409L76.0299 34.7491H77.165L31.8855 97.206V95.6409Z" fill="#036FED"/>
<path d="M31.8855 94.0757L74.8947 34.7491H76.0299L31.8855 95.6409V94.0757Z" fill="#0270EE"/>
<path d="M31.8855 92.5088L73.7595 34.7491H74.8947L31.8855 94.0757V92.5088Z" fill="#0270EF"/>
<path d="M31.8855 90.9436L72.6243 34.7491H73.7595L31.8855 92.5088V90.9436Z" fill="#0270F0"/>
<path d="M31.8855 89.3785L71.4892 34.7491H72.6243L31.8855 90.9436V89.3785Z" fill="#0271F1"/>
<path d="M31.8855 87.8133L70.3558 34.7491H71.4892L31.8855 89.3785V87.8133Z" fill="#0171F2"/>
<path d="M31.8855 86.2482L69.2206 34.7491H70.3558L31.8855 87.8133V86.2482Z" fill="#0172F3"/>
<path d="M31.8855 84.6812L68.0854 34.7491H69.2206L31.8855 86.2482V84.6812Z" fill="#0172F4"/>
<path d="M31.8855 83.1161L66.9502 34.7491H68.0854L31.8855 84.6812V83.1161Z" fill="#0172F5"/>
<path d="M31.8855 81.551L65.8151 34.7491H66.9503L31.8855 83.1161V81.551Z" fill="#0073F6"/>
<path d="M31.8855 79.9858L64.6799 34.7491H65.8151L31.8855 81.551V79.9858Z" fill="#0073F7"/>
<path d="M64.6799 34.7491L31.8855 79.9858V34.7491H64.6799Z" fill="#0073F7"/>
</g>
<mask id="mask1_173_2441" style="mask-type:luminance" maskUnits="userSpaceOnUse" x="96" y="102" width="36" height="36">
<path d="M128.268 135.125C130.121 133.491 131.187 131.3 131.266 128.956C131.348 126.509 130.367 124.126 128.494 122.239C125.602 119.324 114.775 108.512 111.901 105.66L109.051 102.811C105.761 107.612 101.606 111.759 96.7971 115.04L98.9292 117.153C101.543 119.739 112.113 130.277 114.716 132.969C116.871 135.204 118.847 136.785 121.478 137.236H123.659C123.82 137.172 123.986 137.123 124.156 137.09C125.682 136.827 127.105 136.147 128.268 135.125Z" fill="white"/>
</mask>
<g mask="url(#mask1_173_2441)">
<path d="M131.109 137.236L131.346 136.907V137.236H131.109Z" fill="#1F4678"/>
<path d="M129.974 137.236L131.346 135.342V136.907L131.109 137.236H129.974Z" fill="#1F4679"/>
<path d="M128.839 137.236L131.346 133.777V135.342L129.974 137.236H128.839Z" fill="#1F477A"/>
<path d="M127.706 137.236L131.346 132.212V133.777L128.839 137.236H127.706Z" fill="#1F477B"/>
<path d="M126.57 137.236L131.346 130.645V132.212L127.706 137.236H126.57Z" fill="#1E477C"/>
<path d="M125.435 137.236L131.346 129.08V130.645L126.57 137.236H125.435Z" fill="#1E487D"/>
<path d="M124.3 137.236L131.346 127.515V129.08L125.435 137.236H124.3Z" fill="#1E487E"/>
<path d="M123.165 137.236L131.346 125.949V127.514L124.3 137.236H123.165Z" fill="#1E487F"/>
<path d="M122.03 137.236L131.346 124.384V125.949L123.165 137.236H122.03Z" fill="#1E4980"/>
<path d="M120.895 137.236L131.346 122.817V124.384L122.03 137.236H120.895Z" fill="#1D4981"/>
<path d="M119.759 137.236L131.346 121.252V122.817L120.894 137.236H119.759Z" fill="#1D4982"/>
<path d="M118.861 137.236L118.707 137.124L131.346 119.687V121.252L119.759 137.236H118.861Z" fill="#1D4A83"/>
<path d="M118.707 137.124L117.961 136.584L131.163 118.377L131.346 118.51V119.687L118.707 137.124Z" fill="#1D4A84"/>
<path d="M130.417 117.832L117.217 136.041L117.962 136.58L131.162 118.371L130.417 117.832Z" fill="#1C4A85"/>
<path d="M129.674 117.292L116.474 135.501L117.219 136.04L130.419 117.832L129.674 117.292Z" fill="#1C4B86"/>
<path d="M128.929 116.755L115.729 134.963L116.474 135.503L129.674 117.294L128.929 116.755Z" fill="#1C4B87"/>
<path d="M128.185 116.216L114.984 134.425L115.729 134.964L128.929 116.755L128.185 116.216Z" fill="#1C4C88"/>
<path d="M127.44 115.677L114.24 133.886L114.985 134.425L128.185 116.216L127.44 115.677Z" fill="#1B4C89"/>
<path d="M126.697 115.137L113.496 133.346L114.241 133.885L127.441 115.677L126.697 115.137Z" fill="#1B4C8A"/>
<path d="M125.952 114.599L112.752 132.808L113.497 133.347L126.697 115.138L125.952 114.599Z" fill="#1B4D8B"/>
<path d="M125.209 114.061L112.009 132.27L112.754 132.809L125.954 114.6L125.209 114.061Z" fill="#1B4D8C"/>
<path d="M124.463 113.523L111.263 131.732L112.007 132.271L125.208 114.062L124.463 113.523Z" fill="#1A4D8D"/>
<path d="M123.718 112.982L110.518 131.191L111.263 131.73L124.463 113.521L123.718 112.982Z" fill="#1A4E8E"/>
<path d="M122.975 112.444L109.775 130.653L110.519 131.192L123.72 112.983L122.975 112.444Z" fill="#1A4E8F"/>
<path d="M122.23 111.906L109.03 130.115L109.775 130.654L122.975 112.445L122.23 111.906Z" fill="#1A4E90"/>
<path d="M121.487 111.366L108.287 129.575L109.032 130.114L122.232 111.905L121.487 111.366Z" fill="#194F91"/>
<path d="M120.744 110.828L107.544 129.037L108.288 129.576L121.489 111.367L120.744 110.828Z" fill="#194F92"/>
<path d="M119.996 110.289L106.796 128.497L107.541 129.037L120.741 110.828L119.996 110.289Z" fill="#194F93"/>
<path d="M119.253 109.749L106.053 127.958L106.797 128.497L119.998 110.288L119.253 109.749Z" fill="#195094"/>
<path d="M118.509 109.212L105.308 127.421L106.053 127.96L119.253 109.751L118.509 109.212Z" fill="#185095"/>
<path d="M117.765 108.672L104.565 126.881L105.31 127.42L118.51 109.212L117.765 108.672Z" fill="#185196"/>
<path d="M117.022 108.133L103.822 126.342L104.567 126.881L117.767 108.672L117.022 108.133Z" fill="#185197"/>
<path d="M116.276 107.595L103.076 125.804L103.821 126.343L117.021 108.134L116.276 107.595Z" fill="#185198"/>
<path d="M115.531 107.055L102.331 125.264L103.076 125.803L116.276 107.595L115.531 107.055Z" fill="#175299"/>
<path d="M114.788 106.517L101.588 124.726L102.332 125.265L115.532 107.057L114.788 106.517Z" fill="#17529A"/>
<path d="M114.043 105.979L100.843 124.188L101.588 124.727L114.788 106.518L114.043 105.979Z" fill="#17529B"/>
<path d="M113.3 105.439L100.1 123.648L100.845 124.187L114.045 105.978L113.3 105.439Z" fill="#17539C"/>
<path d="M112.554 104.902L99.3541 123.111L100.099 123.65L113.299 105.441L112.554 104.902Z" fill="#16539D"/>
<path d="M111.811 104.362L98.6108 122.571L99.3556 123.11L112.556 104.901L111.811 104.362Z" fill="#16539E"/>
<path d="M111.066 103.822L97.8657 122.031L98.6105 122.57L111.811 104.361L111.066 103.822Z" fill="#16549F"/>
<path d="M110.322 103.286L97.1215 121.495L97.8662 122.034L111.066 103.825L110.322 103.286Z" fill="#1654A0"/>
<path d="M97.1222 121.498L96.7971 121.263V120.38L109.536 102.811H109.661L110.322 103.289L97.1222 121.498Z" fill="#1554A1"/>
<path d="M96.7971 118.815L108.4 102.811H109.536L96.7971 120.38V118.815Z" fill="#1555A2"/>
<path d="M96.7971 117.25L107.265 102.811H108.4L96.7971 118.815V117.25Z" fill="#1555A3"/>
<path d="M96.7971 115.684L106.13 102.811H107.265L96.7971 117.25V115.684Z" fill="#1556A4"/>
<path d="M96.7971 114.119L104.995 102.811H106.13L96.7971 115.684V114.119Z" fill="#1456A5"/>
<path d="M96.7971 112.554L103.86 102.811H104.995L96.7971 114.119V112.554Z" fill="#1456A6"/>
<path d="M96.7971 110.989L102.724 102.811H103.86L96.7971 112.554V110.989Z" fill="#1457A7"/>
<path d="M96.7971 109.422L101.591 102.811H102.724L96.7971 110.989V109.422Z" fill="#1457A8"/>
<path d="M96.7971 107.857L100.456 102.811H101.591L96.7971 109.422V107.857Z" fill="#1357A9"/>
<path d="M96.7971 106.292L99.3207 102.811H100.456L96.7971 107.857V106.292Z" fill="#1358AA"/>
<path d="M96.7971 104.727L98.1856 102.811H99.3207L96.7971 106.292V104.727Z" fill="#1358AB"/>
<path d="M96.7971 103.161L97.0504 102.811H98.1856L96.7971 104.727V103.161Z" fill="#1358AC"/>
<path d="M97.0504 102.811L96.7971 103.161V102.811H97.0504Z" fill="#1259AD"/>
</g>
<mask id="mask2_173_2441" style="mask-type:luminance" maskUnits="userSpaceOnUse" x="76" y="0" width="111" height="117">
<path d="M157.5 38.8164C154.373 37.9836 152.593 36.9048 152.534 33.175C152.468 29.0809 151.097 25.0119 149.164 21.3952C141.281 6.58193 128.293 6.07371e-05 112.002 0.281859C95.9817 0.558272 84.6443 8.73939 77.7974 23.1416C75.2612 28.4778 75.9635 31.985 79.854 33.8122C83.7445 35.6394 86.7566 33.8338 89.0342 28.3845C94.9436 14.2533 112.589 8.19195 126.121 15.4613C136.347 20.9482 141.008 29.4506 140.904 40.8518C140.846 47.2362 142.31 48.7027 148.464 49.4314C154.267 50.1206 159.374 52.314 163.911 56.2268C172.57 63.6828 175.915 74.9817 172.193 85.8551C168.649 96.2063 158.339 103.598 147.047 103.625C137.126 103.647 127.206 103.662 117.286 103.669C121.123 107.498 126.017 112.387 129.859 116.234C135.658 116.234 141.458 116.223 147.259 116.201C167.476 116.101 183.182 101.37 185.95 80.0325C188.186 62.7674 174.927 43.4616 157.5 38.8164Z" fill="white"/>
</mask>
<g mask="url(#mask2_173_2441)">
<path d="M174.719 116.221L188.186 97.6439V116.221H174.719Z" fill="#253E62"/>
<path d="M173.583 116.221L188.186 96.0787V97.6439L174.719 116.221H173.583Z" fill="#253E62"/>
<path d="M172.448 116.221L188.186 94.5118V96.0788L173.583 116.221H172.448Z" fill="#253E63"/>
<path d="M171.313 116.221L188.186 92.9467V94.5118L172.448 116.221H171.313Z" fill="#253F64"/>
<path d="M170.178 116.221L188.186 91.3816V92.9467L171.313 116.221H170.178Z" fill="#243F65"/>
<path d="M169.043 116.221L188.186 89.8164V91.3816L170.178 116.221H169.043Z" fill="#243F65"/>
<path d="M167.907 116.221L188.186 88.2512V89.8164L169.043 116.221H167.907Z" fill="#244066"/>
<path d="M166.774 116.221L188.186 86.6862V88.2513L167.907 116.221H166.774Z" fill="#244067"/>
<path d="M165.639 116.221L188.186 85.1191V86.6861L166.774 116.221H165.639Z" fill="#234068"/>
<path d="M164.504 116.221L188.186 83.5541V85.1192L165.639 116.221H164.504Z" fill="#234169"/>
<path d="M163.369 116.221L188.186 81.9889V83.554L164.504 116.221H163.369Z" fill="#23416A"/>
<path d="M162.233 116.221L188.186 80.4237V81.9889L163.369 116.221H162.233Z" fill="#23416B"/>
<path d="M161.098 116.221L188.186 78.8586V80.4238L162.233 116.221H161.098Z" fill="#23426C"/>
<path d="M159.963 116.221L188.186 77.2935V78.8586L161.098 116.221H159.963Z" fill="#22426D"/>
<path d="M158.828 116.221L188.186 75.7264V77.2934L159.963 116.221H158.828Z" fill="#22426E"/>
<path d="M157.694 116.221L188.186 74.1614V75.7265L158.828 116.221H157.694Z" fill="#22436F"/>
<path d="M156.559 116.221L188.186 72.5962V74.1613L157.695 116.221H156.559Z" fill="#224370"/>
<path d="M155.424 116.221L188.186 71.031V72.5962L156.559 116.221H155.424Z" fill="#214371"/>
<path d="M154.289 116.221L188.186 69.4659V71.0311L155.424 116.221H154.289Z" fill="#214472"/>
<path d="M153.154 116.221L188.186 67.9008V69.4659L154.289 116.221H153.154Z" fill="#214473"/>
<path d="M152.019 116.221L188.186 66.3339V67.9008L153.154 116.221H152.019Z" fill="#214473"/>
<path d="M150.885 116.221L188.186 64.7687V66.3338L152.019 116.221H150.885Z" fill="#204574"/>
<path d="M149.75 116.221L188.186 63.2035V64.7686L150.885 116.221H149.75Z" fill="#204575"/>
<path d="M148.615 116.221L188.186 61.6384V63.2036L149.75 116.221H148.615Z" fill="#204576"/>
<path d="M147.48 116.221L188.186 60.0732V61.6384L148.615 116.221H147.48Z" fill="#204677"/>
<path d="M146.344 116.221L188.186 58.5063V60.0733L147.48 116.221H146.344Z" fill="#1F4678"/>
<path d="M145.209 116.221L188.186 56.9412V58.5063L146.345 116.221H145.209Z" fill="#1F4679"/>
<path d="M144.076 116.221L188.186 55.376V56.9411L145.209 116.221H144.076Z" fill="#1F477A"/>
<path d="M142.941 116.221L188.186 53.8109V55.3761L144.076 116.221H142.941Z" fill="#1F477B"/>
<path d="M141.806 116.221L188.186 52.2457V53.8109L142.941 116.221H141.806Z" fill="#1E477C"/>
<path d="M140.67 116.221L188.186 50.6805V52.2457L141.806 116.221H140.67Z" fill="#1E487D"/>
<path d="M139.535 116.221L188.186 49.1136V50.6806L140.67 116.221H139.535Z" fill="#1E487E"/>
<path d="M138.4 116.221L188.186 47.5485V49.1136L139.535 116.221H138.4Z" fill="#1E487F"/>
<path d="M137.265 116.221L188.186 45.9834V47.5485L138.4 116.221H137.265Z" fill="#1E4980"/>
<path d="M136.13 116.221L188.186 44.4182V45.9834L137.265 116.221H136.13Z" fill="#1D4981"/>
<path d="M134.996 116.221L188.186 42.853V44.4182L136.13 116.221H134.996Z" fill="#1D4982"/>
<path d="M133.861 116.221L188.186 41.2878V42.853L134.996 116.221H133.861Z" fill="#1D4A83"/>
<path d="M132.726 116.221L188.008 39.9668L188.186 40.0942V41.2878L133.861 116.221H132.726Z" fill="#1D4A84"/>
<path d="M131.591 116.221L187.263 39.4283L188.008 39.9668L132.726 116.221H131.591Z" fill="#1C4A85"/>
<path d="M130.456 116.221L186.519 38.8882L187.263 39.4284L131.591 116.221H130.456Z" fill="#1C4B86"/>
<path d="M129.32 116.221L185.776 38.3496L186.519 38.8881L130.456 116.221H129.32Z" fill="#1C4B87"/>
<path d="M129.256 116.221L128.553 115.713L185.03 37.8112L185.776 38.3496L129.32 116.221H129.256Z" fill="#1C4C88"/>
<path d="M184.282 37.2667L127.808 115.171L128.552 115.71L185.027 37.8059L184.282 37.2667Z" fill="#1B4C89"/>
<path d="M183.539 36.7269L127.064 114.631L127.809 115.17L184.284 37.2661L183.539 36.7269Z" fill="#1B4C8A"/>
<path d="M182.795 36.1904L126.32 114.094L127.065 114.634L183.539 36.7295L182.795 36.1904Z" fill="#1B4D8B"/>
<path d="M182.05 35.6496L125.575 113.554L126.32 114.093L182.795 36.1888L182.05 35.6496Z" fill="#1B4D8C"/>
<path d="M181.307 35.1098L124.832 113.014L125.577 113.553L182.051 35.649L181.307 35.1098Z" fill="#1A4D8D"/>
<path d="M180.56 34.5733L124.086 112.477L124.831 113.017L181.305 35.1125L180.56 34.5733Z" fill="#1A4E8E"/>
<path d="M179.817 34.0336L123.343 111.938L124.087 112.477L180.562 34.5727L179.817 34.0336Z" fill="#1A4E8F"/>
<path d="M179.074 33.4938L122.599 111.398L123.344 111.937L179.819 34.0329L179.074 33.4938Z" fill="#1A4E90"/>
<path d="M178.328 32.9561L121.853 110.86L122.598 111.399L179.073 33.4953L178.328 32.9561Z" fill="#194F91"/>
<path d="M177.585 32.4165L121.11 110.321L121.855 110.86L178.33 32.9556L177.585 32.4165Z" fill="#194F92"/>
<path d="M176.84 31.8799L120.366 109.784L121.11 110.323L177.585 32.419L176.84 31.8799Z" fill="#194F93"/>
<path d="M176.095 31.3402L119.621 109.244L120.365 109.783L176.84 31.8793L176.095 31.3402Z" fill="#195094"/>
<path d="M175.352 30.8004L118.877 108.704L119.622 109.244L176.097 31.3395L175.352 30.8004Z" fill="#185095"/>
<path d="M174.608 30.2639L118.133 108.168L118.878 108.707L175.352 30.803L174.608 30.2639Z" fill="#185196"/>
<path d="M173.863 29.723L117.388 107.627L118.133 108.166L174.608 30.2621L173.863 29.723Z" fill="#185197"/>
<path d="M173.12 29.1833L116.645 107.087L117.39 107.627L173.864 29.7225L173.12 29.1833Z" fill="#185198"/>
<path d="M172.375 28.6467L115.901 106.551L116.645 107.09L173.12 29.1858L172.375 28.6467Z" fill="#175299"/>
<path d="M171.63 28.107L115.156 106.011L115.9 106.55L172.375 28.6462L171.63 28.107Z" fill="#17529A"/>
<path d="M170.887 27.5672L114.412 105.471L115.157 106.01L171.632 28.1064L170.887 27.5672Z" fill="#17529B"/>
<path d="M170.141 27.0297L113.666 104.934L114.411 105.473L170.886 27.5688L170.141 27.0297Z" fill="#17539C"/>
<path d="M169.398 26.4899L112.923 104.394L113.668 104.933L170.143 27.029L169.398 26.4899Z" fill="#16539D"/>
<path d="M168.653 25.9515L112.179 103.856L112.923 104.395L169.398 26.4906L168.653 25.9515Z" fill="#16539E"/>
<path d="M167.91 25.4135L111.435 103.318L112.18 103.857L168.655 25.9527L167.91 25.4135Z" fill="#16549F"/>
<path d="M167.165 24.8739L110.69 102.778L111.435 103.317L167.91 25.413L167.165 24.8739Z" fill="#1654A0"/>
<path d="M166.419 24.3363L109.944 102.24L110.689 102.779L167.164 24.8754L166.419 24.3363Z" fill="#1554A1"/>
<path d="M165.676 23.7965L109.201 101.701L109.946 102.24L166.421 24.3356L165.676 23.7965Z" fill="#1555A2"/>
<path d="M164.933 23.2567L108.458 101.161L109.203 101.7L165.677 23.7958L164.933 23.2567Z" fill="#1555A3"/>
<path d="M164.188 22.7202L107.714 100.624L108.458 101.163L164.933 23.2593L164.188 22.7202Z" fill="#1556A4"/>
<path d="M163.445 22.1804L106.97 100.084L107.715 100.624L164.19 22.7195L163.445 22.1804Z" fill="#1456A5"/>
<path d="M162.697 21.6411L106.223 99.5452L106.967 100.084L163.442 22.1802L162.697 21.6411Z" fill="#1456A6"/>
<path d="M161.954 21.1031L105.479 99.0072L106.224 99.5463L162.699 21.6423L161.954 21.1031Z" fill="#1457A7"/>
<path d="M161.211 20.5633L104.736 98.4674L105.481 99.0065L161.955 21.1025L161.211 20.5633Z" fill="#1457A8"/>
<path d="M160.466 20.025L103.992 97.9291L104.736 98.4682L161.211 20.5642L160.466 20.025Z" fill="#1357A9"/>
<path d="M159.723 19.487L103.248 97.3911L103.993 97.9302L160.468 20.0262L159.723 19.487Z" fill="#1358AA"/>
<path d="M158.978 18.9463L102.504 96.8503L103.248 97.3895L159.723 19.4854L158.978 18.9463Z" fill="#1358AB"/>
<path d="M158.234 18.408L101.759 96.312L102.504 96.8511L158.979 18.9471L158.234 18.408Z" fill="#1358AC"/>
<path d="M157.489 17.87L101.014 95.774L101.759 96.3132L158.234 18.4091L157.489 17.87Z" fill="#1259AD"/>
<path d="M156.744 17.3316L100.27 95.2357L101.015 95.7748L157.489 17.8708L156.744 17.3316Z" fill="#1259AE"/>
<path d="M156.001 16.7937L99.5265 94.6978L100.271 95.2369L156.746 17.3328L156.001 16.7937Z" fill="#125AAF"/>
<path d="M155.256 16.2528L98.7817 94.1569L99.5265 94.696L156.001 16.7919L155.256 16.2528Z" fill="#125AB0"/>
<path d="M154.512 15.7146L98.0374 93.6187L98.7821 94.1578L155.257 16.2537L154.512 15.7146Z" fill="#115AB1"/>
<path d="M153.769 15.1765L97.2941 93.0806L98.0388 93.6197L154.513 15.7156L153.769 15.1765Z" fill="#115BB2"/>
<path d="M153.024 14.6368L96.549 92.5409L97.2937 93.08L153.768 15.176L153.024 14.6368Z" fill="#115BB3"/>
<path d="M152.279 14.0985L95.8047 92.0026L96.5494 92.5417L153.024 14.6376L152.279 14.0985Z" fill="#115BB5"/>
<path d="M151.535 13.5594L95.0599 91.4635L95.8047 92.0026L152.279 14.0986L151.535 13.5594Z" fill="#105CB6"/>
<path d="M150.79 13.0211L94.3156 90.9252L95.0603 91.4643L151.535 13.5602L150.79 13.0211Z" fill="#105CB7"/>
<path d="M150.047 12.4814L93.5723 90.3855L94.317 90.9246L150.792 13.0206L150.047 12.4814Z" fill="#105CB8"/>
<path d="M149.304 11.9433L92.829 89.8474L93.5737 90.3865L150.048 12.4825L149.304 11.9433Z" fill="#0F5DB9"/>
<path d="M148.557 11.405L92.0828 89.3091L92.8275 89.8482L149.302 11.9442L148.557 11.405Z" fill="#0F5DBA"/>
<path d="M147.813 10.8643L91.338 88.7683L92.0828 89.3074L148.557 11.4034L147.813 10.8643Z" fill="#0F5EBB"/>
<path d="M147.069 10.3263L90.5947 88.2303L91.3395 88.7695L147.814 10.8654L147.069 10.3263Z" fill="#0F5EBC"/>
<path d="M146.325 9.78795L89.8503 87.692L90.5951 88.2311L147.07 10.3271L146.325 9.78795Z" fill="#0E5EBD"/>
<path d="M145.582 9.24817L89.1071 87.1522L89.8518 87.6913L146.326 9.78729L145.582 9.24817Z" fill="#0E5FBE"/>
<path d="M144.837 8.71165L88.3627 86.6157L89.1074 87.1548L145.582 9.25078L144.837 8.71165Z" fill="#0E5FBF"/>
<path d="M144.091 8.17088L87.6162 86.075L88.361 86.6141L144.836 8.71001L144.091 8.17088Z" fill="#0E5FC0"/>
<path d="M143.347 7.63293L86.8728 85.537L87.6176 86.0761L144.092 8.17206L143.347 7.63293Z" fill="#0D60C1"/>
<path d="M142.603 7.09458L86.1285 84.9987L86.8733 85.5378L143.348 7.6337L142.603 7.09458Z" fill="#0D60C2"/>
<path d="M141.86 6.55479L85.3853 84.4589L86.13 84.998L142.605 7.09392L141.86 6.55479Z" fill="#0D60C3"/>
<path d="M141.117 6.01683L84.6418 83.9209L85.3866 84.46L141.861 6.55596L141.117 6.01683Z" fill="#0D61C4"/>
<path d="M140.371 5.47754L83.8961 83.3816L84.6409 83.9207L141.116 6.01666L140.371 5.47754Z" fill="#0C61C5"/>
<path d="M139.626 4.93773L83.151 82.8418L83.8958 83.3809L140.37 5.47686L139.626 4.93773Z" fill="#0C62C6"/>
<path d="M138.881 4.40123L82.4066 82.3053L83.1514 82.8444L139.626 4.94036L138.881 4.40123Z" fill="#0C62C7"/>
<path d="M138.138 3.86145L81.6633 81.7655L82.4081 82.3046L138.883 4.40057L138.138 3.86145Z" fill="#0C62C8"/>
<path d="M137.395 3.32163L80.92 81.2257L81.6648 81.7648L138.139 3.86075L137.395 3.32163Z" fill="#0B63C9"/>
<path d="M136.65 2.78514L80.1757 80.6892L80.9204 81.2283L137.395 3.32427L136.65 2.78514Z" fill="#0B63CA"/>
<path d="M135.906 2.24438L79.4309 80.1484L80.1757 80.6876L136.65 2.78351L135.906 2.24438Z" fill="#0B63CB"/>
<path d="M135.16 1.70459L78.6858 79.6086L79.4305 80.1478L135.905 2.24371L135.16 1.70459Z" fill="#0B64CC"/>
<path d="M134.416 1.16808L77.9415 79.0721L78.6863 79.6113L135.161 1.7072L134.416 1.16808Z" fill="#0A64CD"/>
<path d="M133.673 0.62828L77.1981 78.5323L77.9429 79.0715L134.418 1.16741L133.673 0.62828Z" fill="#0A65CE"/>
<path d="M132.929 0.0917937L76.4539 77.9958L77.1986 78.535L133.673 0.630922L132.929 0.0917937Z" fill="#0A65CF"/>
<path d="M76.4539 77.9952L75.7103 77.4568L131.864 0H132.801L132.931 0.0933344L76.4539 77.9952Z" fill="#0A65D0"/>
<path d="M75.7103 77.4568L75.2612 77.1319V76.5108L130.729 0H131.864L75.7103 77.4568Z" fill="#0966D1"/>
<path d="M75.2612 74.9439L129.593 0H130.729L75.2612 76.5109V74.9439Z" fill="#0966D2"/>
<path d="M75.2612 73.3788L128.46 0H129.593L75.2612 74.9439V73.3788Z" fill="#0966D3"/>
<path d="M75.2612 71.8136L127.325 0H128.46L75.2612 73.3788V71.8136Z" fill="#0967D5"/>
<path d="M75.2612 70.2485L126.19 0H127.325L75.2612 71.8136V70.2485Z" fill="#0867D6"/>
<path d="M75.2612 68.6833L125.055 0H126.19L75.2612 70.2485V68.6833Z" fill="#0867D7"/>
<path d="M75.2612 67.1182L123.919 0H125.055L75.2612 68.6833V67.1182Z" fill="#0868D8"/>
<path d="M75.2612 65.5512L122.784 0H123.919L75.2612 67.1182V65.5512Z" fill="#0868D9"/>
<path d="M75.2612 63.9861L121.649 0H122.784L75.2612 65.5512V63.9861Z" fill="#0769DA"/>
<path d="M75.2612 62.421L120.516 0H121.649L75.2612 63.9861V62.421Z" fill="#0769DB"/>
<path d="M75.2612 60.8558L119.38 0H120.516L75.2612 62.421V60.8558Z" fill="#0769DC"/>
<path d="M75.2612 59.2907L118.245 0H119.38L75.2612 60.8558V59.2907Z" fill="#066ADD"/>
<path d="M75.2612 57.7255L117.11 0H118.245L75.2612 59.2907V57.7255Z" fill="#066ADE"/>
<path d="M75.2612 56.1586L115.975 0H117.11L75.2612 57.7255V56.1586Z" fill="#066ADF"/>
<path d="M75.2612 54.5934L114.84 0H115.975L75.2612 56.1586V54.5934Z" fill="#066BE0"/>
<path d="M75.2612 53.0283L113.705 0H114.84L75.2612 54.5934V53.0283Z" fill="#056BE1"/>
<path d="M75.2612 51.4631L112.571 0H113.705L75.2612 53.0283V51.4631Z" fill="#056CE2"/>
<path d="M75.2612 49.898L111.436 0H112.571L75.2612 51.4631V49.898Z" fill="#056CE3"/>
<path d="M75.2612 48.3311L110.301 0H111.436L75.2612 49.898V48.3311Z" fill="#056CE4"/>
<path d="M75.2612 46.7659L109.166 0H110.301L75.2612 48.3311V46.7659Z" fill="#046DE5"/>
<path d="M75.2612 45.2008L108.03 0H109.166L75.2612 46.7659V45.2008Z" fill="#046DE6"/>
<path d="M75.2612 43.6356L106.895 0H108.03L75.2612 45.2008V43.6356Z" fill="#046DE7"/>
<path d="M75.2612 42.0705L105.762 0H106.895L75.2612 43.6356V42.0705Z" fill="#046EE8"/>
<path d="M75.2612 40.5053L104.627 0H105.762L75.2612 42.0705V40.5053Z" fill="#036EE9"/>
<path d="M75.2612 38.9384L103.492 0H104.627L75.2612 40.5053V38.9384Z" fill="#036FEA"/>
<path d="M75.2612 37.3732L102.356 0H103.492L75.2612 38.9384V37.3732Z" fill="#036FEB"/>
<path d="M75.2612 35.8081L101.221 0H102.356L75.2612 37.3732V35.8081Z" fill="#036FED"/>
<path d="M75.2612 34.2429L100.086 0H101.221L75.2612 35.8081V34.2429Z" fill="#0270EE"/>
<path d="M75.2612 32.6778L98.9509 0H100.086L75.2612 34.243V32.6778Z" fill="#0270EF"/>
<path d="M75.2612 31.1127L97.8175 0H98.9509L75.2612 32.6778V31.1127Z" fill="#0270F0"/>
<path d="M75.2612 29.5457L96.6823 0H97.8175L75.2612 31.1127V29.5457Z" fill="#0271F1"/>
<path d="M75.2612 27.9806L95.5471 0H96.6823L75.2612 29.5457V27.9806Z" fill="#0171F2"/>
<path d="M75.2612 26.4154L94.412 0H95.5471L75.2612 27.9806V26.4154Z" fill="#0172F3"/>
<path d="M75.2612 24.8503L93.2768 0H94.412L75.2612 26.4154V24.8503Z" fill="#0172F4"/>
<path d="M75.2612 23.2851L92.1416 0H93.2768L75.2612 24.8503V23.2851Z" fill="#0172F5"/>
<path d="M75.2612 21.7182L91.0082 0H92.1416L75.2612 23.2851V21.7182Z" fill="#0073F6"/>
<path d="M75.2612 20.153L89.873 0H91.0082L75.2612 21.7182V20.153Z" fill="#0073F7"/>
<path d="M89.873 0L75.2612 20.153V0H89.873Z" fill="#0073F7"/>
</g>
<mask id="mask3_173_2441" style="mask-type:luminance" maskUnits="userSpaceOnUse" x="54" y="58" width="34" height="39">
<path d="M79.8881 82.4699C82.9415 84.1607 85.3843 86.3917 87.1733 89.3012C78.302 99.069 62.9574 98.4372 54.8064 89.1594C55.8841 87.903 56.89 86.5371 58.1078 85.3902C59.3256 84.2432 60.7158 83.3799 62.0252 82.3963C55.0525 75.949 56.9169 66.4002 62.0737 61.9345C64.674 59.7004 68.0178 58.5214 71.4453 58.6301C74.8729 58.7387 78.1352 60.1272 80.5886 62.5215C85.5909 67.4377 86.4405 76.4624 79.8881 82.4699Z" fill="white"/>
</mask>
<g mask="url(#mask3_173_2441)">
<path d="M84.2168 99.0691L87.1733 94.9911V96.558L85.352 99.0691H84.2168Z" fill="#0F5DB9"/>
<path d="M83.0817 99.0692L87.1733 93.426V94.9912L84.2168 99.0692H83.0817Z" fill="#0F5DBA"/>
<path d="M81.9464 99.0691L87.1733 91.8608V93.426L83.0816 99.0691H81.9464Z" fill="#0F5EBB"/>
<path d="M80.8113 99.0691L87.1733 90.2957V91.8608L81.9465 99.0691H80.8113Z" fill="#0F5EBC"/>
<path d="M79.6779 99.069L87.1733 88.7305V90.2956L80.8112 99.069H79.6779Z" fill="#0E5EBD"/>
<path d="M78.5427 99.0691L87.1733 87.1636V88.7305L79.6779 99.0691H78.5427Z" fill="#0E5FBE"/>
<path d="M77.4076 99.0691L87.1733 85.5984V87.1635L78.5428 99.0691H77.4076Z" fill="#0E5FBF"/>
<path d="M76.2723 99.0691L87.1733 84.0333V85.5985L77.4075 99.0691H76.2723Z" fill="#0E5FC0"/>
<path d="M75.1372 99.0691L87.1733 82.4681V84.0333L76.2724 99.0691H75.1372Z" fill="#0D60C1"/>
<path d="M74.0021 99.0691L87.1734 80.903V82.4681L75.1373 99.0691H74.0021Z" fill="#0D60C2"/>
<path d="M72.8668 99.0691L87.1733 79.3379V80.903L74.002 99.0691H72.8668Z" fill="#0D60C3"/>
<path d="M71.7335 99.0691L87.1734 77.7709V79.3378L72.8669 99.0691H71.7335Z" fill="#0D61C4"/>
<path d="M70.5983 99.0691L87.1733 76.2058V77.771L71.7334 99.0691H70.5983Z" fill="#0C61C5"/>
<path d="M69.4631 99.0691L87.1733 74.6406V76.2058L70.5983 99.0691H69.4631Z" fill="#0C62C6"/>
<path d="M68.3279 99.0691L87.1733 73.0754V74.6406L69.4631 99.0691H68.3279Z" fill="#0C62C7"/>
<path d="M67.1927 99.0691L87.1733 71.5104V73.0755L68.3279 99.0691H67.1927Z" fill="#0C62C8"/>
<path d="M66.0576 99.0691L87.1733 69.9452V71.5103L67.1928 99.0691H66.0576Z" fill="#0B63C9"/>
<path d="M64.9224 99.0692L87.1733 68.3783V69.9452L66.0575 99.0692H64.9224Z" fill="#0B63CA"/>
<path d="M63.7891 99.0691L87.1733 66.8131V68.3783L64.9224 99.0691H63.7891Z" fill="#0B63CB"/>
<path d="M63.2178 99.0691L62.8478 98.8016L87.0403 65.4292L87.1733 65.5261V66.8131L63.789 99.0691H63.2178Z" fill="#0B64CC"/>
<path d="M86.2972 64.8879L62.1046 98.2604L62.8494 98.7995L87.042 65.427L86.2972 64.8879Z" fill="#0A64CD"/>
<path d="M85.551 64.3495L61.3584 97.722L62.1032 98.2612L86.2957 64.8887L85.551 64.3495Z" fill="#0A65CE"/>
<path d="M84.8062 63.8105L60.6136 97.183L61.3584 97.7221L85.551 64.3496L84.8062 63.8105Z" fill="#0A65CF"/>
<path d="M84.0629 63.2707L59.8704 96.6432L60.6151 97.1823L84.8077 63.8098L84.0629 63.2707Z" fill="#0A65D0"/>
<path d="M83.3186 62.7325L59.126 96.105L59.8707 96.6441L84.0633 63.2716L83.3186 62.7325Z" fill="#0966D1"/>
<path d="M82.5753 62.1944L58.3827 95.5669L59.1274 96.106L83.32 62.7335L82.5753 62.1944Z" fill="#0966D2"/>
<path d="M81.832 61.6547L57.6394 95.0272L58.3842 95.5663L82.5767 62.1938L81.832 61.6547Z" fill="#0966D3"/>
<path d="M81.0844 61.1153L56.8918 94.4878L57.6366 95.0269L81.8292 61.6544L81.0844 61.1153Z" fill="#0967D5"/>
<path d="M80.341 60.5773L56.1484 93.9498L56.8932 94.489L81.0858 61.1164L80.341 60.5773Z" fill="#0867D6"/>
<path d="M79.5968 60.039L55.4042 93.4115L56.1489 93.9506L80.3415 60.5781L79.5968 60.039Z" fill="#0867D7"/>
<path d="M55.4045 93.4135L54.8064 92.9809V92.6722L78.8535 59.5026L79.5989 60.041L55.4045 93.4135Z" fill="#0868D8"/>
<path d="M54.8064 91.1069L78.1099 58.964L78.8535 59.5025L54.8064 92.6721V91.1069Z" fill="#0868D9"/>
<path d="M54.8064 89.5418L77.3662 58.4255L78.1099 58.964L54.8064 91.1069V89.5418Z" fill="#0769DA"/>
<path d="M54.8064 87.9767L76.6208 57.8871L77.3662 58.4256L54.8064 89.5418V87.9767Z" fill="#0769DB"/>
<path d="M54.8064 86.4115L75.8772 57.3468L76.6208 57.8871L54.8064 87.9766V86.4115Z" fill="#0769DC"/>
<path d="M54.8064 84.8446L74.7546 57.3307H75.8539L75.8772 57.3468L54.8064 86.4115V84.8446Z" fill="#066ADD"/>
<path d="M54.8064 83.2794L73.6194 57.3307H74.7546L54.8064 84.8446V83.2794Z" fill="#066ADE"/>
<path d="M54.8064 81.7143L72.4843 57.3307H73.6194L54.8064 83.2794V81.7143Z" fill="#066ADF"/>
<path d="M54.8064 80.1492L71.3491 57.3307H72.4843L54.8064 81.7143V80.1492Z" fill="#066BE0"/>
<path d="M54.8064 78.584L70.2139 57.3307H71.3491L54.8064 80.1492V78.584Z" fill="#056BE1"/>
<path d="M54.8064 77.0189L69.0787 57.3307H70.2139L54.8064 78.584V77.0189Z" fill="#056CE2"/>
<path d="M54.8064 75.4519L67.9453 57.3307H69.0787L54.8064 77.0189V75.4519Z" fill="#056CE3"/>
<path d="M54.8064 73.8868L66.8102 57.3307H67.9454L54.8064 75.4519V73.8868Z" fill="#056CE4"/>
<path d="M54.8064 72.3216L65.675 57.3307H66.8102L54.8064 73.8868V72.3216Z" fill="#046DE5"/>
<path d="M54.8064 70.7565L64.5398 57.3307H65.675L54.8064 72.3216V70.7565Z" fill="#046DE6"/>
<path d="M54.8064 69.1913L63.4046 57.3307H64.5398L54.8064 70.7565V69.1913Z" fill="#046DE7"/>
<path d="M54.8064 67.6244L62.2695 57.3307H63.4046L54.8064 69.1913V67.6244Z" fill="#046EE8"/>
<path d="M54.8064 66.0592L61.1361 57.3307H62.2695L54.8064 67.6244V66.0592Z" fill="#036EE9"/>
<path d="M54.8064 64.4941L60.0009 57.3307H61.1361L54.8064 66.0592V64.4941Z" fill="#036FEA"/>
<path d="M54.8064 62.929L58.8657 57.3307H60.0009L54.8064 64.4941V62.929Z" fill="#036FEB"/>
<path d="M54.8064 61.3638L57.7306 57.3307H58.8657L54.8064 62.929V61.3638Z" fill="#036FED"/>
<path d="M54.8064 59.7987L56.5954 57.3307H57.7306L54.8064 61.3638V59.7987Z" fill="#0270EE"/>
<path d="M54.8064 58.2335L55.4602 57.3307H56.5954L54.8064 59.7987V58.2335Z" fill="#0270EF"/>
</g>
<path d="M37.9943 143.735H3.64625C3.16625 143.731 2.69016 143.821 2.24556 144.002C1.80096 144.183 1.3967 144.45 1.05618 144.789C0.378963 145.48 -0.000244141 146.41 -0.000244141 147.378C-0.000244141 148.345 0.378963 149.275 1.05618 149.967C1.39637 150.305 1.80053 150.573 2.24518 150.754C2.68983 150.936 3.16608 151.027 3.64625 151.022H17.175V186.161C17.1642 186.641 17.2521 187.119 17.4335 187.564C17.6149 188.009 17.8857 188.413 18.2293 188.749C18.5698 189.088 18.9743 189.355 19.4193 189.537C19.8642 189.718 20.3407 189.809 20.8212 189.804C21.3022 189.815 21.7801 189.726 22.2256 189.545C22.671 189.363 23.0746 189.092 23.4113 188.749C23.7671 188.419 24.0493 188.019 24.2393 187.573C24.4294 187.127 24.523 186.645 24.5141 186.161V151.022H37.9943C38.481 151.032 38.9642 150.939 39.4122 150.748C39.8602 150.558 40.2627 150.275 40.5934 149.918C40.9382 149.593 41.2103 149.199 41.392 148.761C41.5737 148.323 41.6608 147.852 41.6477 147.379C41.655 146.898 41.5657 146.421 41.385 145.976C41.2043 145.53 40.936 145.126 40.596 144.786C40.2559 144.446 39.8511 144.178 39.4054 143.997C38.9598 143.817 38.4824 143.728 38.0015 143.735H37.9943Z" fill="#323232"/>
<path d="M61.5978 152.652C56.4799 152.652 52.0984 154.458 48.4534 158.069C44.8383 161.713 43.0314 166.091 43.0326 171.204C43.0326 176.349 44.8395 180.728 48.4534 184.339C52.0984 187.983 56.4799 189.804 61.5978 189.804C66.7468 189.804 71.1282 187.983 74.7421 184.339C78.3883 180.728 80.2114 176.349 80.2114 171.204C80.2114 166.09 78.3883 161.711 74.7421 158.069C71.1282 154.458 66.7468 152.652 61.5978 152.652ZM69.5602 179.161C67.3856 181.367 64.7315 182.47 61.5978 182.469C58.494 182.469 55.8393 181.366 53.6336 179.161C51.4279 176.955 50.3244 174.303 50.3232 171.204C50.3232 168.105 51.4267 165.452 53.6336 163.245C55.8405 161.039 58.4952 159.936 61.5978 159.937C64.7327 159.937 67.3868 161.04 69.5602 163.245C71.803 165.452 72.9244 168.105 72.9244 171.204C72.9244 174.303 71.803 176.955 69.5602 179.161Z" fill="#323232"/>
<path d="M102.279 152.652C97.1625 152.652 92.7804 154.458 89.133 158.069C85.5191 161.713 83.7122 166.091 83.7122 171.204V201.358C83.7064 201.838 83.7968 202.315 83.9779 202.759C84.1591 203.204 84.4275 203.608 84.7672 203.947C85.107 204.287 85.5112 204.555 85.9562 204.736C86.4012 204.917 86.878 205.008 87.3584 205.002C88.3225 204.992 89.2445 204.606 89.9263 203.924C90.6081 203.243 90.9952 202.322 91.0046 201.358V186.066C93.7863 188.558 97.5444 189.805 102.279 189.806C107.428 189.806 111.81 187.984 115.423 184.341C119.07 180.729 120.892 176.351 120.891 171.206C120.891 166.092 119.069 161.713 115.423 158.071C111.808 154.458 107.427 152.652 102.279 152.652ZM110.242 179.161C108.067 181.367 105.413 182.47 102.279 182.469C99.1754 182.469 96.5206 181.366 94.3149 179.161C92.1093 176.955 91.0058 174.303 91.0046 171.204C91.0046 168.105 92.1081 165.452 94.3149 163.245C96.5218 161.039 99.1766 159.936 102.279 159.937C105.414 159.937 108.068 161.04 110.242 163.245C112.48 165.451 113.599 168.104 113.6 171.204C113.602 174.304 112.482 176.957 110.242 179.161Z" fill="#323232"/>
<path d="M172.56 143.735C172.078 143.725 171.6 143.813 171.155 143.994C170.709 144.175 170.305 144.446 169.968 144.789C169.612 145.118 169.33 145.52 169.14 145.966C168.95 146.412 168.856 146.894 168.865 147.379V163.102H144.494V147.379C144.502 146.898 144.412 146.421 144.232 145.976C144.051 145.53 143.783 145.126 143.443 144.786C143.103 144.446 142.698 144.178 142.252 143.997C141.806 143.817 141.329 143.728 140.848 143.735C140.368 143.731 139.892 143.821 139.448 144.002C139.003 144.183 138.599 144.45 138.258 144.789C137.914 145.125 137.643 145.529 137.462 145.974C137.28 146.42 137.192 146.898 137.202 147.379V186.161C137.192 186.641 137.28 187.119 137.462 187.564C137.643 188.01 137.914 188.413 138.258 188.749C138.598 189.088 139.003 189.355 139.447 189.537C139.892 189.718 140.368 189.809 140.848 189.804C141.329 189.81 141.805 189.72 142.25 189.539C142.695 189.358 143.1 189.09 143.439 188.75C143.779 188.411 144.047 188.007 144.229 187.562C144.41 187.117 144.5 186.641 144.494 186.161V170.438H168.865V186.161C168.856 186.645 168.95 187.127 169.14 187.573C169.33 188.019 169.612 188.419 169.968 188.749C170.305 189.092 170.708 189.363 171.154 189.545C171.6 189.726 172.078 189.815 172.56 189.804C173.034 189.817 173.505 189.73 173.943 189.548C174.381 189.366 174.776 189.094 175.101 188.749C175.457 188.42 175.74 188.019 175.93 187.573C176.12 187.127 176.213 186.646 176.204 186.161V147.379C176.213 146.894 176.12 146.412 175.93 145.966C175.739 145.519 175.457 145.118 175.101 144.789C174.776 144.444 174.381 144.172 173.943 143.991C173.505 143.809 173.034 143.722 172.56 143.735Z" fill="#323232"/>
<path d="M218.085 162.287C218.085 157.142 216.262 152.763 212.616 149.152C209.002 145.508 204.62 143.687 199.471 143.687C194.354 143.687 189.972 145.508 186.327 149.152C182.713 152.763 180.906 157.142 180.906 162.287V186.159C180.9 186.639 180.991 187.116 181.172 187.56C181.353 188.005 181.622 188.409 181.961 188.748C182.301 189.088 182.705 189.356 183.15 189.537C183.595 189.718 184.072 189.808 184.552 189.803C185.516 189.791 186.437 189.404 187.118 188.723C187.8 188.042 188.188 187.122 188.199 186.159V177.1C189.302 178.085 190.561 178.88 191.924 179.455C192.226 179.784 192.57 180.072 192.948 180.311L205.661 188.941C206.036 189.238 206.472 189.447 206.938 189.555C207.404 189.663 207.888 189.666 208.355 189.564C209.347 189.436 210.211 188.845 210.947 187.791C211.394 187.214 211.554 186.431 211.427 185.441C211.349 184.964 211.177 184.506 210.922 184.095C210.667 183.684 210.333 183.327 209.939 183.045L205.244 179.979C207.984 179.107 210.444 177.572 212.625 175.374C216.265 171.765 218.085 167.402 218.085 162.287ZM207.436 170.246C205.26 172.419 202.605 173.505 199.471 173.505C197.993 173.528 196.524 173.251 195.156 172.691C193.787 172.131 192.547 171.299 191.509 170.246C189.302 168.04 188.199 165.387 188.199 162.287C188.199 159.155 189.302 156.487 191.509 154.282C192.547 153.228 193.787 152.396 195.156 151.836C196.524 151.276 197.993 150.999 199.471 151.022C202.606 151.022 205.261 152.109 207.436 154.282C209.674 156.486 210.793 159.154 210.793 162.287C210.793 165.387 209.674 168.04 207.436 170.246Z" fill="#323232"/>
</g>
<defs>
<clipPath id="clip0_173_2441">
<rect width="218.085" height="205" fill="white"/>
</clipPath>
</defs>
</svg>
